<svg xmlns="http://www.w3.org/2000/svg" xmlns:xlink="http://www.w3.org/1999/xlink" width="1000" height="581.04"><rect width="1000" height="581.04" rx="5" ry="5" class="a"/><svg y="0%" x="0%"><circle cx="20" cy="20" r="6" fill="#ff5f58"/><circle cx="40" cy="20" r="6" fill="#ffbd2e"/><circle cx="60" cy="20" r="6" fill="#18c132"/></svg><svg height="521.04" viewBox="0 0 96 52.104" width="960" x="15" xmlns="http://www.w3.org/2000/svg" xmlns:xlink="http://www.w3.org/1999/xlink" y="50"><style>@keyframes j{0%{transform:translateX(0)}.28%{transform:translateX(-96px)}.45%{transform:translateX(-192px)}43.57%{transform:translateX(-288px)}44.28%{transform:translateX(-384px)}44.42%{transform:translateX(-576px)}44.44%{transform:translateX(-672px)}to{transform:translateX(-768px)}}.a{fill:#282d35}.f,.g{white-space:pre}.f{fill:#66c2cd;font-weight:700}.g{fill:#b9c0cb}</style><g font-family="Monaco,Consolas,Menlo,'Bitstream Vera Sans Mono','Powerline Symbols',monospace" font-size="1.67"><defs><symbol id="1"><text y="1.67" class="f">$</text><text x="2.004" y="1.67" class="f">make</text><text x="7.014" y="1.67" class="f">test</text></symbol><symbol id="2"><text y="1.67" class="g">python3</text><text x="8.016" y="1.67" class="g">scripts/smoke_test.py</text></symbol><symbol id="3"><text y="1.67" class="g">loopsmith</text><text x="10.02" y="1.67" class="g">smoke</text><text x="16.032" y="1.67" class="g">test</text><text x="21.042" y="1.67" class="g">passed</text></symbol><symbol id="4"><text y="1.67" class="f">$</text><text x="2.004" y="1.67" class="f">sed</text><text x="6.012" y="1.67" class="f">-n</text><text x="9.018" y="1.67" class="f">\&quot;1,32p\&quot;</text><text x="19.038" y="1.67" class="f">examples/before-after-eval.md</text></symbol><symbol id="5"><text y="1.67" class="g">A</text><text x="2.004" y="1.67" class="g">research</text><text x="11.022" y="1.67" class="g">agent</text><text x="17.034" y="1.67" class="g">keeps</text><text x="23.046" y="1.67" class="g">producing</text><text x="33.066" y="1.67" class="g">briefs</text><text x="40.08" y="1.67" class="g">that</text><text x="45.09" y="1.67" class="g">are</text><text x="49.098" y="1.67" class="g">technically</text><text x="61.122" y="1.67" class="g">competent</text><text x="71.142" y="1.67" class="g">but</text><text x="75.15" y="1.67" class="g">painful</text><text x="83.166" y="1.67" class="g">to</text><text x="86.172" y="1.67" class="g">read.</text><text x="92.184" y="1.67" class="g">The</text></symbol><symbol id="6"><text y="1.67" class="g">output</text><text x="7.014" y="1.67" class="g">repeats</text><text x="15.03" y="1.67" class="g">the</text><text x="19.038" y="1.67" class="g">same</text><text x="24.048" y="1.67" class="g">thesis</text><text x="31.062" y="1.67" class="g">in</text><text x="34.068" y="1.67" class="g">several</text><text x="42.084" y="1.67" class="g">sections,</text><text x="52.104" y="1.67" class="g">keeps</text><text x="58.116" y="1.67" class="g">weak</text><text x="63.126" y="1.67" class="g">topics</text><text x="70.14" y="1.67" class="g">alive,</text><text x="77.154" y="1.67" class="g">and</text><text x="81.162" y="1.67" class="g">buries</text><text x="88.176" y="1.67" class="g">the</text><text x="92.184" y="1.67" class="g">usef</text></symbol><symbol id="7"><text y="1.67" class="g">ul</text><text x="3.006" y="1.67" class="g">signal</text><text x="10.02" y="1.67" class="g">under</text><text x="16.032" y="1.67" class="g">generic</text><text x="24.048" y="1.67" class="g">scaffolding.</text></symbol><symbol id="8"><text y="1.67" class="g">##</text><text x="3.006" y="1.67" class="g">Baseline</text></symbol><symbol id="9"><text y="1.67" class="g">```text</text></symbol><symbol id="10"><text y="1.67" class="g">The</text><text x="4.008" y="1.67" class="g">agent</text><text x="10.02" y="1.67" class="g">writes</text><text x="17.034" y="1.67" class="g">a</text><text x="19.038" y="1.67" class="g">long</text><text x="24.048" y="1.67" class="g">research</text><text x="33.066" y="1.67" class="g">brief</text><text x="39.078" y="1.67" class="g">with</text><text x="44.088" y="1.67" class="g">repeated</text><text x="53.106" y="1.67" class="g">sections,</text><text x="63.126" y="1.67" class="g">several</text><text x="71.142" y="1.67" class="g">marginal</text><text x="80.16" y="1.67" class="g">topics,</text><text x="88.176" y="1.67" class="g">and</text><text x="92.184" y="1.67" class="g">a</text><text x="94.188" y="1.67" class="g">po</text></symbol><symbol id="11"><text y="1.67" class="g">lished</text><text x="7.014" y="1.67" class="g">but</text><text x="11.022" y="1.67" class="g">low-signal</text><text x="22.044" y="1.67" class="g">summary.</text><text x="31.062" y="1.67" class="g">It</text><text x="34.068" y="1.67" class="g">sounds</text><text x="41.082" y="1.67" class="g">complete,</text><text x="51.102" y="1.67" class="g">but</text><text x="55.11" y="1.67" class="g">the</text><text x="59.118" y="1.67" class="g">operator</text><text x="68.136" y="1.67" class="g">still</text><text x="74.148" y="1.67" class="g">has</text><text x="78.156" y="1.67" class="g">to</text><text x="81.162" y="1.67" class="g">dig</text><text x="85.17" y="1.67" class="g">for</text><text x="89.178" y="1.67" class="g">the</text><text x="93.186" y="1.67" class="g">act</text></symbol><symbol id="12"><text y="1.67" class="g">ual</text><text x="4.008" y="1.67" class="g">point.</text></symbol><symbol id="13"><text y="1.67" class="g">```</text></symbol><symbol id="14"><text y="1.67" class="g">##</text><text x="3.006" y="1.67" class="g">Candidate</text></symbol><symbol id="15"><text y="1.67" class="g">The</text><text x="4.008" y="1.67" class="g">candidate</text><text x="14.028" y="1.67" class="g">policy</text><text x="21.042" y="1.67" class="g">forces</text><text x="28.056" y="1.67" class="g">the</text><text x="32.064" y="1.67" class="g">agent</text><text x="38.076" y="1.67" class="g">to</text><text x="41.082" y="1.67" class="g">drop</text><text x="46.092" y="1.67" class="g">weak</text><text x="51.102" y="1.67" class="g">topics,</text><text x="59.118" y="1.67" class="g">avoid</text><text x="65.13" y="1.67" class="g">repeating</text><text x="75.15" y="1.67" class="g">the</text><text x="79.158" y="1.67" class="g">same</text><text x="84.168" y="1.67" class="g">thesis,</text><text x="92.184" y="1.67" class="g">and</text></symbol><symbol id="16"><text y="1.67" class="g">preserve</text><text x="9.018" y="1.67" class="g">only</text><text x="14.028" y="1.67" class="g">the</text><text x="18.036" y="1.67" class="g">highest-signal</text><text x="33.066" y="1.67" class="g">items</text><text x="39.078" y="1.67" class="g">with</text><text x="44.088" y="1.67" class="g">a</text><text x="46.092" y="1.67" class="g">concrete</text><text x="55.11" y="1.67" class="g">operator</text><text x="64.128" y="1.67" class="g">angle.</text></symbol><symbol id="17"><text y="1.67" class="g">##</text><text x="3.006" y="1.67" class="g">Eval</text><text x="8.016" y="1.67" class="g">Pack</text></symbol><symbol id="18"><text y="1.67" class="g">The</text><text x="4.008" y="1.67" class="g">public</text><text x="11.022" y="1.67" class="g">pattern</text><text x="19.038" y="1.67" class="g">lives</text><text x="25.05" y="1.67" class="g">in</text><text x="28.056" y="1.67" class="g">[`docs/research-brief-quality-pack.md`](../docs/research-brief-quali</text></symbol><symbol id="19"><text y="1.67" class="g">ty-pack.md).</text><text x="13.026" y="1.67" class="g">It</text><text x="16.032" y="1.67" class="g">checks</text><text x="23.046" y="1.67" class="g">for:</text></symbol><symbol id="20"><text y="1.67" class="g">-</text><text x="2.004" y="1.67" class="g">repeated</text><text x="11.022" y="1.67" class="g">thesis</text><text x="18.036" y="1.67" class="g">inflation</text></symbol><symbol id="21"><text y="1.67" class="g">-</text><text x="2.004" y="1.67" class="g">template</text><text x="11.022" y="1.67" class="g">fatigue</text></symbol><symbol id="22"><text y="1.67" class="g">-</text><text x="2.004" y="1.67" class="g">weak-topic</text><text x="13.026" y="1.67" class="g">retention</text></symbol><symbol id="23"><text y="1.67" class="g">-</text><text x="2.004" y="1.67" class="g">fake</text><text x="7.014" y="1.67" class="g">completeness</text></symbol><symbol id="24"><text y="1.67" class="g">-</text><text x="2.004" y="1.67" class="g">signal</text><text x="9.018" y="1.67" class="g">density</text></symbol><symbol id="25"><text y="1.67" class="g">##</text><text x="3.006" y="1.67" class="g">Proof</text><text x="9.018" y="1.67" class="g">Artifact</text></symbol><symbol id="a"><path fill="transparent" d="M0 0h96v25H0z"/></symbol><symbol id="b"><path fill="#6f7683" d="M0 0h1.102v2.171H0z"/></symbol></defs><path class="a" d="M0 0h96v52.104H0z"/><g style="animation-duration:18s;animation-iteration-count:infinite;animation-name:j;animation-timing-function:steps(1,end)"><svg width="864"><svg><use xlink:href="#a"/><use xlink:href="#b" x="-.004"/></svg><svg x="96"><use xlink:href="#a"/><use xlink:href="#b" x="-.004" y="2.146"/><use xlink:href="#1"/></svg><svg x="192"><use xlink:href="#a"/><use xlink:href="#b" x="-.004" y="4.317"/><use xlink:href="#1"/><use xlink:href="#2" y="2.171"/></svg><svg x="288"><use xlink:href="#a"/><use xlink:href="#b" x="-.004" y="6.488"/><use xlink:href="#1"/><use xlink:href="#2" y="2.171"/><use xlink:href="#3" y="4.342"/></svg><svg x="384"><use xlink:href="#a"/><use xlink:href="#b" x="-.004" y="10.83"/><use xlink:href="#1"/><use xlink:href="#2" y="2.171"/><use xlink:href="#3" y="4.342"/><use xlink:href="#4" y="8.684"/></svg><svg x="480"><use xlink:href="#a"/><use xlink:href="#b" x="-.004" y="47.737"/><use xlink:href="#1"/><use xlink:href="#2" y="2.171"/><use xlink:href="#3" y="4.342"/><use xlink:href="#4" y="8.684"/><text y="12.525" class="g">#</text><text x="2.004" y="12.525" class="g">Before</text><text x="9.018" y="12.525" class="g">/</text><text x="11.022" y="12.525" class="g">After</text><text x="17.034" y="12.525" class="g">Eval</text><text x="22.044" y="12.525" class="g">Example</text><text y="16.867" class="g">This</text><text x="5.01" y="16.867" class="g">is</text><text x="8.016" y="16.867" class="g">the</text><text x="12.024" y="16.867" class="g">smallest</text><text x="21.042" y="16.867" class="g">useful</text><text x="28.056" y="16.867" class="g">Loopsmith</text><text x="38.076" y="16.867" class="g">story:</text><text x="45.09" y="16.867" class="g">a</text><text x="47.094" y="16.867" class="g">recurring</text><text x="57.114" y="16.867" class="g">agent</text><text x="63.126" y="16.867" class="g">behaviour</text><text x="73.146" y="16.867" class="g">is</text><text x="76.152" y="16.867" class="g">turned</text><text x="83.166" y="16.867" class="g">into</text><text x="88.176" y="16.867" class="g">a</text><text x="90.18" y="16.867" class="g">scored</text><text x="1.002" y="19.038" class="g">comparison</text><text x="12.024" y="19.038" class="g">instead</text><text x="20.04" y="19.038" class="g">of</text><text x="23.046" y="19.038" class="g">another</text><text x="31.062" y="19.038" class="g">vague</text><text x="37.074" y="19.038" class="g">complaint.</text><text y="23.38" class="g">##</text><text x="3.006" y="23.38" class="g">Failure</text><text x="11.022" y="23.38" class="g">Pattern</text><use xlink:href="#5" y="26.052"/><use xlink:href="#6" y="28.223"/><use xlink:href="#7" y="30.394"/><use xlink:href="#8" y="34.736"/><use xlink:href="#9" y="39.078"/><use xlink:href="#10" y="41.249"/><use xlink:href="#11" y="43.42"/><use xlink:href="#12" y="45.591"/></svg><svg x="576"><use xlink:href="#a"/><use xlink:href="#b" x="-.004" y="52.079"/><use xlink:href="#5"/><use xlink:href="#6" y="2.171"/><use xlink:href="#7" y="4.342"/><use xlink:href="#8" y="8.684"/><use xlink:href="#9" y="13.026"/><use xlink:href="#10" y="15.197"/><use xlink:href="#11" y="17.368"/><use xlink:href="#12" y="19.539"/><use xlink:href="#13" y="21.71"/><use xlink:href="#14" y="26.052"/><use xlink:href="#9" y="30.394"/><use xlink:href="#15" y="32.565"/><use xlink:href="#16" y="34.736"/><use xlink:href="#13" y="36.907"/><use xlink:href="#17" y="41.249"/><use xlink:href="#18" y="45.591"/><use xlink:href="#19" y="47.762"/></svg><svg x="672"><use xlink:href="#a"/><use xlink:href="#b" x="-.004" y="52.079"/><use xlink:href="#11"/><use xlink:href="#12" y="2.171"/><use xlink:href="#13" y="4.342"/><use xlink:href="#14" y="8.684"/><use xlink:href="#9" y="13.026"/><use xlink:href="#15" y="15.197"/><use xlink:href="#16" y="17.368"/><use xlink:href="#13" y="19.539"/><use xlink:href="#17" y="23.881"/><use xlink:href="#18" y="28.223"/><use xlink:href="#19" y="30.394"/><use xlink:href="#20" y="34.736"/><use xlink:href="#21" y="36.907"/><use xlink:href="#22" y="39.078"/><use xlink:href="#23" y="41.249"/><use xlink:href="#24" y="43.42"/><use xlink:href="#25" y="47.762"/></svg><svg x="768"><use xlink:href="#a"/><use xlink:href="#b" x="-.004" y="52.079"/><use xlink:href="#11"/><use xlink:href="#12" y="2.171"/><use xlink:href="#13" y="4.342"/><use xlink:href="#14" y="8.684"/><use xlink:href="#9" y="13.026"/><use xlink:href="#15" y="15.197"/><use xlink:href="#16" y="17.368"/><use xlink:href="#13" y="19.539"/><use xlink:href="#17" y="23.881"/><use xlink:href="#18" y="28.223"/><use xlink:href="#19" y="30.394"/><use xlink:href="#20" y="34.736"/><use xlink:href="#21" y="36.907"/><use xlink:href="#22" y="39.078"/><use xlink:href="#23" y="41.249"/><use xlink:href="#24" y="43.42"/><use xlink:href="#25" y="47.762"/></svg></svg></g></g></svg></svg>